<svg width="512" height="512" viewBox="0 0 512 512" fill="none" xmlns="http://www.w3.org/2000/svg">
<g clip-path="url(#clip0_1627_1927)">
<path d="M460.8 0H51.2C22.923 0 0 22.923 0 51.2V460.8C0 489.077 22.923 512 51.2 512H460.8C489.077 512 512 489.077 512 460.8V51.2C512 22.923 489.077 0 460.8 0Z" fill="#45AF49"/>
<path d="M215.005 68.8162L235.268 234.786H218.327C217.081 234.786 216.001 236.073 215.752 237.859L214.05 251.229C213.842 253.015 212.762 254.302 211.517 254.302H194.617C192.998 254.302 191.752 252.184 192.042 249.859L215.005 68.8162Z" fill="white"/>
<path d="M315.492 249.942L292.239 59.3489C291.741 55.238 290.121 51.7918 287.879 49.5492C286.218 47.8882 284.184 46.9333 282.024 46.9333H231.324C230.162 46.9333 229.04 47.2239 228.002 47.7223C223.31 50.0062 220.196 57.0236 221.109 64.5393L241.912 234.786L243.906 251.229C243.906 251.229 243.906 251.52 243.989 251.645C244.321 253.223 245.318 254.302 246.48 254.302H262.674C264.294 254.302 265.539 252.184 265.249 249.901L263.92 239.104C263.629 236.821 264.875 234.703 266.494 234.703H290.121C291.367 234.703 292.447 235.99 292.696 237.817L294.357 251.229C294.564 253.015 295.644 254.344 296.931 254.344H313.126C313.126 254.344 313.208 254.344 313.25 254.344C314.787 254.219 315.949 252.185 315.7 249.942H315.492ZM259.726 85.9239C258.439 85.9239 257.193 85.6333 255.948 85.0522C251.131 82.8514 247.061 76.6225 246.189 69.3146H269.193C270.315 78.4913 266.079 85.9239 259.726 85.9239Z" fill="white"/>
<path d="M187.15 291.75V399.667H208.483V426.667H152.067V291.75H187.15ZM217.067 291.75H252.067C263.122 291.75 271.483 292.611 277.15 294.333C282.872 296.055 287.483 299.555 290.983 304.833C294.483 310.056 296.233 318.5 296.233 330.167C296.233 338.056 294.983 343.555 292.483 346.667C290.039 349.778 285.178 352.167 277.9 353.833C286.011 355.667 291.511 358.722 294.4 363C297.289 367.222 298.733 373.722 298.733 382.5V395C298.733 404.111 297.678 410.861 295.566 415.25C293.511 419.639 290.205 422.639 285.65 424.25C281.094 425.861 271.761 426.667 257.65 426.667H217.067V291.75ZM252.15 314.834V344.833C253.65 344.778 254.817 344.75 255.65 344.75C259.095 344.75 261.289 343.917 262.233 342.25C263.178 340.528 263.65 335.667 263.65 327.667C263.65 323.445 263.261 320.5 262.483 318.834C261.705 317.111 260.678 316.028 259.4 315.583C258.178 315.139 255.761 314.889 252.15 314.834ZM252.15 365.833V403.583C257.094 403.417 260.233 402.639 261.567 401.25C262.955 399.861 263.65 396.445 263.65 391V378.417C263.65 372.639 263.039 369.139 261.817 367.917C260.594 366.694 257.372 366 252.15 365.833ZM354.317 291.75V381.917C354.317 395.417 354.178 404.111 353.9 408C353.622 411.833 352.344 415.305 350.067 418.417C347.844 421.528 344.789 423.695 340.9 424.917C337.067 426.083 331.261 426.667 323.483 426.667H305.9V403.084C308.011 403.25 309.539 403.333 310.483 403.333C312.983 403.333 314.955 402.722 316.4 401.5C317.844 400.278 318.678 398.778 318.9 397C319.122 395.222 319.233 391.778 319.233 386.667V291.75H354.317Z" fill="white"/>
</g>
<defs>
<clipPath id="clip0_1627_1927">
<rect width="512" height="512" fill="white"/>
</clipPath>
</defs>
</svg>
