<svg width="40" height="34" viewBox="0 0 40 34" fill="none" xmlns="http://www.w3.org/2000/svg"><path d="M26.4444 32.4211v-3.3333c0-1.7681-.6867-3.4638-1.9092-4.714-1.2224-1.2503-2.8805-1.9527-4.6093-1.9527H8.51852c-1.72882 0-3.38683.7024-4.60929 1.9527C2.68677 25.624 2 27.3197 2 29.0878v3.3333M14.2223 15.7545c3.6819 0 6.6667-2.9848 6.6667-6.66669 0-3.6819-2.9848-6.66667-6.6667-6.66667-3.6819 0-6.66664 2.98477-6.66664 6.66667 0 3.68189 2.98474 6.66669 6.66664 6.66669zM27.5557 15.7545l3.3333 3.3333 6.6667-6.6667" stroke="#53AF3B" stroke-width="3" stroke-linecap="round" stroke-linejoin="round"/></svg>