<svg width="43" height="99" viewBox="0 0 43 99" fill="none" xmlns="http://www.w3.org/2000/svg"><g clip-path="url(#clip0)"><path d="M42.5499 96.5L42.45 5.9c-.2-1.9-1-3.6-2.1-4.7-.8-.7-1.7001-1.2-2.8001-1.2H5.44995c-.5 0-1.1.1-1.6.4-2.2 1.1-3.699999 4.4-3.299999 8l-.1 88.7v.2c.2.7.599999 1.3 1.199999 1.3h7.7c.80005 0 1.40005-1 1.20005-2.1l.4-5.1c-.1-1.1.4-2.1 1.2-2.1h19.2c.6 0 1.0999.6 1.1999 1.5l-.0999 6.5c.0999.9.6 1.5 1.2 1.5l7.6-.1h.1c.7-.2 1.2999-1.2 1.1999-2.2zM12.55 10.6h18.9c.1 13.3-18.9 13.3-18.9 0z" fill="#43B049"/><path d="M13.6499 45.9998c.7-1.2 2.4-3.3 5.8-2.3 0 0 1.8.8 2 2.4 0 0 .8-2.8 4.4-2.4 3.6.4 4.4 4.1 3.9 6-.6 1.9-1.7 3-3.8 4.5-2.2 1.5-3.8 2.5-4.6 3.1 0 0-2.4-1.7-3.2-2.3-.8-.6-3.5-2.6-4.4-4.3-1-1.7-.9-3.5-.1-4.7zM21.9499 39.3999h-1.1v-2h1.1v2zm0-3.6h-1.1v-1.9h1.1v1.9zM14.1499 42.6999l-1.4-1.4.8-.8 1.4 1.4-.8.8zm-2.6-2.6l-1.4-1.4.8-.8 1.4 1.4-.8.8zM11.6499 49.7999h-2V48.7h2v1.0999zm-3.6 0h-1.9V48.7h1.9v1.0999zM11.0499 60.4l-.8-.8001 1.4-1.3999.8.8-1.4 1.4zm2.5-2.5l-.8-.8001 1.4-1.3999.8.8-1.4 1.4zM21.9499 64.5h-1.1v-1.9h1.1v1.9zm0-3.5h-1.1v-2h1.1v2zM31.85 60.4l-1.4-1.4.8-.8 1.4 1.3999-.8.8001zm-2.5-2.5l-1.4-1.4.8-.8 1.4 1.3999-.8.8001zM36.7499 49.7999h-1.9V48.7h1.9v1.0999zm-3.5 0h-2V48.7h2v1.0999zM28.75 42.6999l-.8-.8 1.4-1.4.8.8-1.4 1.4zm2.5-2.6l-.8-.8 1.4-1.4.8.8-1.4 1.4z" fill="#fff"/></g><defs><clipPath id="clip0"><path fill="#fff" transform="translate(.449951)" d="M0 0h42.1v98.7H0z"/></clipPath></defs></svg>