<svg width="43" height="99" viewBox="0 0 43 99" fill="none" xmlns="http://www.w3.org/2000/svg"><path d="M42.9001 96.5L42.8 5.9c-.2-1.9-1-3.6-2.0999-4.7C40 .5 39 0 38 0H5.90005c-.6 0-1.1.1-1.6.4-2.2 1.1-3.700001 4.4-3.3 8L.800049 97.1v.2c.200001.7.600001 1.3 1.200001 1.3h7.7C10.5 98.6 11.1 97.6 10.9 96.5l.4-5.1c-.1-1.1.4-2.1 1.2-2.1h19.2001c.6 0 1.1.6 1.2 1.5L32.8 97.3c.1.9.6001 1.5 1.2 1.5l7.6-.1h.1001c.7999-.2 1.2999-1.2 1.2-2.2zM13 10.6h18.9001C31.9001 23.9 13 23.9 13 10.6z" fill="#43B049"/><path d="M20 55.0999l-2.3 1-2.2 5.4 5.3 4.5 1.6-7.4-.9-1.3-1.5-2.2zM25.7999 55.0999l2.4 1 2.2 5.4-5.3 4.5-1.7-7.4.9-1.3 1.5-2.2z" fill="#fff"/><path d="M34 45.0999l-3.1-2.1 1.6-3.4-3.8-.3-.3-3.8-3.4 1.5-2.2001-3.1-2.0999 3.1-3.4001-1.6-.2999 3.8-3.8.3 1.5999 3.4-3.0999 2.2 3.0999 2.2-1.5999 3.4 3.8.3.2999 3.8 1.4001-.7 2-1 2.2 3.1.3999-.6 1.8-2.5 3.4001 1.6.2999-3.8 3.8-.3-1.5999-3.4 3-2.1zm-10.5 6.2c-3.4.4-6.5-2.1-6.9-5.5-.4-3.4 2.0999-6.5 5.4999-6.9 3.4-.4 6.5001 2.1 6.9001 5.5.4 3.4-2.1 6.5-5.5 6.9z" fill="#fff"/><path d="M19.2999 43.7999c.3-.5 1.1-1.5 2.6-1.1 0 0 .8.4.9 1.1 0 0 .4-1.3 2-1.1 1.6.2 2 1.8 1.7 2.7-.2.9-.8 1.3-1.7 2-1 .7-1.7 1.1-2.1 1.4 0 0-1.1-.8-1.5-1-.4-.3-1.6-1.2-2-1.9-.3-.7-.3-1.5.1-2.1z" fill="#fff"/></svg>