<svg width="44" height="99" viewBox="0 0 44 99" fill="none" xmlns="http://www.w3.org/2000/svg"><g clip-path="url(#clip0)"><path d="M43.0499 96.5L42.95 5.9c-.2-1.9-1-3.6-2.1-4.7-.8-.7-1.7001-1.2-2.8001-1.2H5.94995c-.5 0-1.1.1-1.6.4-2.2 1.1-3.699999 4.4-3.3 8L.949951 97.1v.2c.199999.7.599999 1.3 1.199999 1.3h7.7c.80005 0 1.40005-1 1.20005-2.1l.4-5.1c-.1-1.1.4-2.1 1.2-2.1h19.2c.6 0 1.0999.6 1.1999 1.5l-.0999 6.5c.0999.9.6 1.5 1.2 1.5l7.6-.1h.1c.7-.2 1.2999-1.2 1.1999-2.2zM13.05 10.6h18.9c.1 13.3-18.9 13.3-18.9 0z" fill="#43B049"/><path d="M28.65 44.9998c.4-.5.4-1.3-.1-1.7-.5-.4-1.2-.3-1.7.2l-4 4.7c-.4.5-1.2.6-1.7.1l-1.2-1.2c-.5-.5-1.3-.5-1.7-.1-.4.4-.4 1.2.1 1.7l3 2.9c.5.5 1.3.5 1.7-.1l5.6-6.5z" fill="#fff"/><path d="M34.7499 39.2999l-.1-1.1h-1.3c-6.8 0-9.9-3.1-10-3.2l-1.1-1.1-1 1.1s-3.1 3.2-9.7 3.2h-1.2l-.1 1.1c0 .2-.2 4 1 8.3 1.3 4.5 5.4 11.5 11 15.2v-3.4c-.1-.1-6.3-5.5-8.5-12.4-.8-2.6-.9-5.2-1-6.5 4.9-.3 8-2 9.5-3 .8.4 5.2 2.8 9.8 3.1 0 1.4-.2 3.9-1 6.5-2.3 7-8.7 12.4-8.8 12.4v3.4c5.9-3.9 10.2-10.9 11.5-15.4 1.2-4.2 1-8.1 1-8.2z" fill="#fff"/></g><defs><clipPath id="clip0"><path fill="#fff" transform="translate(.949951)" d="M0 0h42.1v98.7H0z"/></clipPath></defs></svg>