<?xml version="1.0" encoding="UTF-8"?>
<svg width="124px" height="19px" viewBox="0 0 124 19" version="1.1" xmlns="http://www.w3.org/2000/svg" xmlns:xlink="http://www.w3.org/1999/xlink">
    <!-- Generator: Sketch 64 (93537) - https://sketch.com -->
    <title>Group 8</title>
    <desc>Created with Sketch.</desc>
    <g id="Desktop" stroke="none" stroke-width="1" fill="none" fill-rule="evenodd">
        <g id="Homepage" transform="translate(-658.000000, -6880.000000)" fill="#FFCB7D">
            <g id="Group-7" transform="translate(-1.000000, 6752.000000)">
                <g id="AdobeStock_93033901" transform="translate(1.000000, 0.000000)">
                    <g id="Group-9" transform="translate(320.000000, 128.000000)">
                        <g id="Group-8" transform="translate(338.000000, 0.000000)">
                            <polygon id="Star" points="10 15 4.12214748 18.0901699 5.24471742 11.545085 0.489434837 6.90983006 7.06107374 5.95491503 10 0 12.9389263 5.95491503 19.5105652 6.90983006 14.7552826 11.545085 15.8778525 18.0901699"></polygon>
                            <polygon id="Star" points="36 15 30.1221475 18.0901699 31.2447174 11.545085 26.4894348 6.90983006 33.0610737 5.95491503 36 0 38.9389263 5.95491503 45.5105652 6.90983006 40.7552826 11.545085 41.8778525 18.0901699"></polygon>
                            <polygon id="Star" points="62 15 56.1221475 18.0901699 57.2447174 11.545085 52.4894348 6.90983006 59.0610737 5.95491503 62 0 64.9389263 5.95491503 71.5105652 6.90983006 66.7552826 11.545085 67.8778525 18.0901699"></polygon>
                            <polygon id="Star" points="88 15 82.1221475 18.0901699 83.2447174 11.545085 78.4894348 6.90983006 85.0610737 5.95491503 88 0 90.9389263 5.95491503 97.5105652 6.90983006 92.7552826 11.545085 93.8778525 18.0901699"></polygon>
                            <polygon id="Star" points="114 15 108.122147 18.0901699 109.244717 11.545085 104.489435 6.90983006 111.061074 5.95491503 114 0 116.938926 5.95491503 123.510565 6.90983006 118.755283 11.545085 119.877853 18.0901699"></polygon>
                        </g>
                    </g>
                </g>
            </g>
        </g>
    </g>
</svg>