<?xml version="1.0" encoding="UTF-8"?>
<svg width="28px" height="30px" viewBox="0 0 28 30" version="1.1" xmlns="http://www.w3.org/2000/svg" xmlns:xlink="http://www.w3.org/1999/xlink">
    <!-- Generator: Sketch 64 (93537) - https://sketch.com -->
    <title>Client Focused</title>
    <desc>Created with Sketch.</desc>
    <defs>
        <path d="M4.66666667,29.6666667 C2.45752767,29.6666667 0.666666667,27.8758057 0.666666667,25.6666667 L0.666666667,11 C0.666666667,10.5885461 0.856630459,10.2001386 1.18141252,9.94753038 L13.1814125,0.614197043 C13.6628932,0.239712097 14.3371068,0.239712097 14.8185875,0.614197043 L26.8185875,9.94753038 C27.1433695,10.2001386 27.3333333,10.5885461 27.3333333,11 L27.3333333,25.6666667 C27.3333333,27.8758057 25.5424723,29.6666667 23.3333333,29.6666667 L4.66666667,29.6666667 Z M14,3.35581544 L3.33333333,11.6521117 L3.33333333,25.6666667 C3.33333333,26.4030463 3.930287,27 4.66666667,27 L8.66666667,26.9993333 L8.66666667,15 C8.66666667,14.3069368 9.19545607,13.737379 9.8715911,13.6727703 L10,13.6666667 L18,13.6666667 C18.7363797,13.6666667 19.3333333,14.2636203 19.3333333,15 L19.3333333,15 L19.3326667,26.9993333 L23.3333333,27 C24.069713,27 24.6666667,26.4030463 24.6666667,25.6666667 L24.6666667,11.6521117 L14,3.35581544 Z M16.6666667,16.3333333 L11.3333333,16.3333333 L11.3326667,26.9993333 L16.6666667,26.9993333 L16.6666667,16.3333333 Z" id="path-1"></path>
    </defs>
    <g id="Assets" stroke="none" stroke-width="1" fill="none" fill-rule="evenodd">
        <g id="Logos-Copy" transform="translate(-949.000000, -333.000000)">
            <g id="Why-Us" transform="translate(120.000000, 115.000000)">
                <g id="Client-Focused">
                    <g transform="translate(829.000000, 218.000000)">
                        <mask id="mask-2" fill="white">
                            <use xlink:href="#path-1"></use>
                        </mask>
                        <use id="Combined-Shape" fill="#FFCB7D" fill-rule="nonzero" xlink:href="#path-1"></use>
                        <g id="_COLORS/yellow" mask="url(#mask-2)" fill="#FFCB7D">
                            <g transform="translate(-2.000000, -1.000000)" id="Rectangle">
                                <rect x="0" y="0" width="32" height="32"></rect>
                            </g>
                        </g>
                    </g>
                </g>
            </g>
        </g>
    </g>
</svg>