<?xml version="1.0" encoding="UTF-8"?>
<svg width="28px" height="28px" viewBox="0 0 28 28" version="1.1" xmlns="http://www.w3.org/2000/svg" xmlns:xlink="http://www.w3.org/1999/xlink">
    <!-- Generator: Sketch 64 (93537) - https://sketch.com -->
    <title>Communicative</title>
    <desc>Created with Sketch.</desc>
    <defs>
        <path d="M6.39052429,19.7238576 C6.6405728,19.4738091 6.97971135,19.3333333 7.33333333,19.3333333 L23.3333333,19.3333333 C24.069713,19.3333333 24.6666667,18.7363797 24.6666667,18 L24.6666667,4.66666667 C24.6666667,3.930287 24.069713,3.33333333 23.3333333,3.33333333 L4.66666667,3.33333333 C3.930287,3.33333333 3.33333333,3.930287 3.33333333,4.66666667 L3.33333333,22.7810486 L6.39052429,19.7238576 Z M7.88561808,22 L2.94280904,26.942809 C2.10285589,27.7827622 0.666666667,27.1878731 0.666666667,26 L0.666666667,4.66666667 C0.666666667,2.45752767 2.45752767,0.666666667 4.66666667,0.666666667 L23.3333333,0.666666667 C25.5424723,0.666666667 27.3333333,2.45752767 27.3333333,4.66666667 L27.3333333,18 C27.3333333,20.209139 25.5424723,22 23.3333333,22 L7.88561808,22 Z" id="path-1"></path>
    </defs>
    <g id="Assets" stroke="none" stroke-width="1" fill="none" fill-rule="evenodd">
        <g id="Logos-Copy" transform="translate(-122.000000, -334.000000)">
            <g id="Why-Us" transform="translate(120.000000, 115.000000)">
                <g id="Communicative">
                    <g transform="translate(2.000000, 219.000000)">
                        <mask id="mask-2" fill="white">
                            <use xlink:href="#path-1"></use>
                        </mask>
                        <use id="Shape" fill="#FFCB7D" fill-rule="nonzero" xlink:href="#path-1"></use>
                        <g id="_COLORS/yellow" mask="url(#mask-2)" fill="#FFCB7D">
                            <g transform="translate(-2.000000, -2.000000)" id="Rectangle">
                                <rect x="0" y="0" width="32" height="32"></rect>
                            </g>
                        </g>
                    </g>
                </g>
            </g>
        </g>
    </g>
</svg>