<?xml version="1.0" encoding="UTF-8"?>
<svg width="31px" height="30px" viewBox="0 0 31 30" version="1.1" xmlns="http://www.w3.org/2000/svg" xmlns:xlink="http://www.w3.org/1999/xlink">
    <!-- Generator: Sketch 64 (93537) - https://sketch.com -->
    <title>Experienced &amp; Licensed</title>
    <desc>Created with Sketch.</desc>
    <defs>
        <path d="M3.51755163,5.47151693 C7.73775406,0.533885576 14.7029947,-1.03981846 20.6360828,1.60381112 C21.3087128,1.90351752 21.6110271,2.6917519 21.3113207,3.36438188 C21.0116143,4.03701185 20.2233799,4.33932614 19.5507499,4.03961974 C14.6964051,1.87665008 8.99757184,3.16422611 5.54467894,7.20410631 C2.09178605,11.2439865 1.70736986,17.0738044 4.59989601,21.5320993 C7.49242217,25.9903943 12.9728429,28.0151265 18.0691728,26.5083009 C23.1655027,25.0014753 26.6637113,20.3220428 26.6667497,15.0083821 L26.6667497,15.0083821 L26.6667497,13.7683821 C26.6667497,13.0320024 27.2637034,12.4350488 28.000083,12.4350488 C28.7364627,12.4350488 29.3334164,13.0320024 29.3334164,13.7683821 L29.3334164,13.7683821 L29.3334164,15.0091445 C29.3297023,21.5045504 25.054114,27.2238568 18.8252663,29.0655325 C12.5964187,30.9072083 5.89812668,28.4325356 2.36281693,22.9835084 C-1.17249281,17.5344813 -0.702650805,10.4091483 3.51755163,5.47151693 Z M28.3906073,2.06557305 C28.9113064,1.544874 29.7555263,1.544874 30.2762254,2.06557305 C30.7969245,2.58627211 30.7969245,3.43049208 30.2762254,3.95119114 L30.2762254,3.95119114 L15.6095587,18.6178578 C15.0888597,19.1385569 14.2446397,19.1385569 13.7239407,18.6178578 L13.7239407,18.6178578 L9.72394065,14.6178578 C9.2032416,14.0971587 9.2032416,13.2529388 9.72394065,12.7322397 C10.2446397,12.2115407 11.0888597,12.2115407 11.6095587,12.7322397 L11.6095587,12.7322397 L14.6667497,15.7894307 Z" id="path-1"></path>
    </defs>
    <g id="Assets" stroke="none" stroke-width="1" fill="none" fill-rule="evenodd">
        <g id="Why-Us" transform="translate(-947.000000, -115.000000)">
            <g transform="translate(120.000000, 115.000000)" id="Experienced-&amp;-Licensed">
                <g>
                    <g transform="translate(827.000000, 0.000000)">
                        <mask id="mask-2" fill="white">
                            <use xlink:href="#path-1"></use>
                        </mask>
                        <use id="Combined-Shape" fill="#FFCB7D" fill-rule="nonzero" xlink:href="#path-1"></use>
                        <g id="_COLORS/yellow" mask="url(#mask-2)" fill="#FFCB7D">
                            <g transform="translate(0.000000, -1.000000)" id="Rectangle">
                                <rect x="0" y="0" width="32" height="32"></rect>
                            </g>
                        </g>
                    </g>
                </g>
            </g>
        </g>
    </g>
</svg>