<?xml version="1.0" encoding="UTF-8"?>
<svg width="28px" height="28px" viewBox="0 0 28 28" version="1.1" xmlns="http://www.w3.org/2000/svg" xmlns:xlink="http://www.w3.org/1999/xlink">
    <!-- Generator: Sketch 64 (93537) - https://sketch.com -->
    <title>Transparent</title>
    <desc>Created with Sketch.</desc>
    <defs>
        <path d="M12,0.666666667 C18.2592272,0.666666667 23.3333333,5.74077284 23.3333333,12 C23.3333333,14.6493766 22.4242462,17.0864245 20.9009926,19.0162231 L26.942809,25.057191 C27.4635081,25.57789 27.4635081,26.42211 26.942809,26.942809 C26.42211,27.4635081 25.57789,27.4635081 25.057191,26.942809 L25.057191,26.942809 L19.0162231,20.9009926 C17.0864245,22.4242462 14.6493766,23.3333333 12,23.3333333 C5.74077284,23.3333333 0.666666667,18.2592272 0.666666667,12 C0.666666667,5.74077284 5.74077284,0.666666667 12,0.666666667 Z M12,3.33333333 C7.21353217,3.33333333 3.33333333,7.21353217 3.33333333,12 C3.33333333,16.7864678 7.21353217,20.6666667 12,20.6666667 C14.3563366,20.6666667 16.4930383,19.7262975 18.0552938,18.2003705 L18.1238576,18.1238576 C18.1482855,18.0994298 18.1734254,18.0761479 18.1992105,18.054012 C19.7262975,16.4930383 20.6666667,14.3563366 20.6666667,12 C20.6666667,7.21353217 16.7864678,3.33333333 12,3.33333333 Z" id="path-1"></path>
    </defs>
    <g id="Assets" stroke="none" stroke-width="1" fill="none" fill-rule="evenodd">
        <g id="Logos-Copy" transform="translate(-536.000000, -334.000000)">
            <g id="Why-Us" transform="translate(120.000000, 115.000000)">
                <g id="Transparent">
                    <g transform="translate(416.000000, 219.000000)">
                        <mask id="mask-2" fill="white">
                            <use xlink:href="#path-1"></use>
                        </mask>
                        <use id="Combined-Shape" fill="#FFCB7D" fill-rule="nonzero" xlink:href="#path-1"></use>
                        <g id="_COLORS/yellow" mask="url(#mask-2)" fill="#FFCB7D">
                            <g transform="translate(-2.000000, -2.000000)" id="Rectangle">
                                <rect x="0" y="0" width="32" height="32"></rect>
                            </g>
                        </g>
                    </g>
                </g>
            </g>
        </g>
    </g>
</svg>