<?xml version="1.0" encoding="UTF-8"?>
<svg width="32px" height="30px" viewBox="0 0 32 30" version="1.1" xmlns="http://www.w3.org/2000/svg" xmlns:xlink="http://www.w3.org/1999/xlink">
    <!-- Generator: Sketch 64 (93537) - https://sketch.com -->
    <title>Wise Service Area</title>
    <desc>Created with Sketch.</desc>
    <defs>
        <path d="M21.4363301,29.6626841 L21.3333333,29.6666667 C21.3242671,29.6666667 21.315222,29.6665762 21.3061989,29.6663961 C21.2965562,29.6661964 21.2868762,29.6658946 21.277199,29.6654874 C21.2419588,29.664047 21.2070693,29.6612194 21.1725847,29.6570756 C21.1572646,29.6550897 21.1422748,29.6530079 21.127314,29.6506695 C21.0973825,29.6462091 21.0675905,29.6405326 21.0381673,29.6338832 C21.0226428,29.6300899 21.0066414,29.6261522 20.9906982,29.6219127 C20.9576635,29.6134487 20.9259517,29.6037168 20.8947669,29.5928595 C20.8849325,29.5890705 20.8746015,29.5853324 20.8643059,29.5814621 C20.8132588,29.5626413 20.7638374,29.5404792 20.7161152,29.5155122 L10.7086257,24.5116915 L1.99485192,29.4909909 C1.10597623,29.9989198 0,29.3570969 0,28.3333333 L0,7 C0,6.5215242 0.256381419,6.07973295 0.671814749,5.84234248 L10.0051481,0.509009144 L10.0238316,0.498248724 C10.0532866,0.482008778 10.0834214,0.466850247 10.1141826,0.452826649 L10.0051481,0.509009144 C10.0522365,0.482101498 10.1005818,0.458273397 10.1498993,0.437532746 C10.220728,0.40740662 10.2940541,0.383723083 10.369834,0.36649464 C10.4102929,0.35755188 10.4507741,0.350278626 10.4914593,0.344888909 C10.5483732,0.33724426 10.6070632,0.333333333 10.6666667,0.333333333 L10.5456178,0.338837118 C10.5616096,0.337380134 10.5776237,0.336212211 10.5936518,0.335333573 L10.6666667,0.333333333 C10.6747255,0.333333333 10.6827677,0.33340483 10.6907926,0.333547224 C10.7047793,0.333802533 10.7187987,0.334276397 10.7328109,0.334971467 C10.7639342,0.336464689 10.7948262,0.339057004 10.8254009,0.342683901 C10.8414085,0.344726515 10.8570631,0.346888589 10.872686,0.349330532 C10.9026175,0.353790922 10.9324095,0.359467443 10.9618327,0.366116849 C10.9773572,0.369910125 10.9933586,0.373847827 11.0093018,0.378087276 C11.0423365,0.386551288 11.0740483,0.39628317 11.1052331,0.407140501 C11.1150675,0.410929515 11.1253985,0.414667624 11.1356941,0.41853792 C11.1689067,0.430653205 11.2013492,0.444362096 11.233107,0.459287076 C11.243216,0.464381196 11.253106,0.469174369 11.2629515,0.474097079 L21.2913743,5.48830847 L30.0051481,0.509009144 C30.8940238,0.00108017902 32,0.642903109 32,1.66666667 L32,23 C32,23.4784758 31.7436186,23.920267 31.3281853,24.1576575 L21.9948519,29.4909909 L21.9852567,29.496694 C21.792509,29.6049378 21.5701299,29.6666667 21.3333333,29.6666667 L21.4433268,29.6621238 C21.440995,29.6623167 21.4386627,29.6625035 21.4363301,29.6626841 Z M12,3.82336314 L12,22.1763631 L20,26.1763631 L20,7.82336314 L12,3.82336314 Z M9.333,3.96336314 L2.66666667,7.77376338 L2.66666667,26.0357604 L9.333,22.2253631 L9.333,3.96336314 Z M29.3333333,3.96423957 L22.666,7.77336314 L22.666,26.0353631 L29.3333333,22.2262366 L29.3333333,3.96423957 Z" id="path-1"></path>
    </defs>
    <g id="Assets" stroke="none" stroke-width="1" fill="none" fill-rule="evenodd">
        <g id="Logos-Copy" transform="translate(-534.000000, -115.000000)">
            <g id="Why-Us" transform="translate(120.000000, 115.000000)">
                <g id="Wise-Service-Area">
                    <g transform="translate(414.000000, 0.000000)">
                        <mask id="mask-2" fill="white">
                            <use xlink:href="#path-1"></use>
                        </mask>
                        <use id="Combined-Shape" fill="#FFCB7D" fill-rule="nonzero" xlink:href="#path-1"></use>
                        <g id="_COLORS/yellow" mask="url(#mask-2)" fill="#FFCB7D">
                            <g transform="translate(0.000000, -1.000000)" id="Rectangle">
                                <rect x="0" y="0" width="32" height="32"></rect>
                            </g>
                        </g>
                    </g>
                </g>
            </g>
        </g>
    </g>
</svg>