<svg width="24" height="24" viewBox="0 0 24 24" fill="none" xmlns="http://www.w3.org/2000/svg">
<g clip-path="url(#clip0_1157_619)">
<path d="M14.2718 15.3143C13.8668 15.7223 14.2088 16.4663 14.2088 16.4663L17.2583 21.5573C17.2583 21.5573 17.7593 22.2278 18.1928 22.2278C18.6278 22.2278 19.0583 21.8693 19.0583 21.8693L21.4688 18.4238C21.4688 18.4238 21.7118 17.9888 21.7178 17.6078C21.7268 17.0663 20.9108 16.9178 20.9108 16.9178L15.2033 15.0848C15.2033 15.0848 14.6438 14.9363 14.2718 15.3128V15.3143ZM13.9823 12.7493C14.2748 13.2443 15.0803 13.1003 15.0803 13.1003L20.7743 11.4368C20.7743 11.4368 21.5498 11.1218 21.6608 10.7003C21.7688 10.2788 21.5333 9.77177 21.5333 9.77177L18.8123 6.56627C18.8123 6.56627 18.5768 6.16127 18.0878 6.12077C17.5478 6.07427 17.2163 6.72827 17.2163 6.72827L13.9988 11.7908C13.9988 11.7908 13.7138 12.2948 13.9838 12.7508L13.9823 12.7493ZM11.2913 10.7753C11.9618 10.6103 12.0683 9.63677 12.0683 9.63677L12.0233 1.53077C12.0233 1.53077 11.9228 0.53027 11.4728 0.26027C10.7678 -0.16723 10.5593 0.0562697 10.3568 0.0862697L5.63026 1.84277C5.63026 1.84277 5.16676 1.99577 4.92676 2.38277C4.58176 2.93027 5.27626 3.73127 5.27626 3.73127L10.1903 10.4288C10.1903 10.4288 10.6748 10.9298 11.2928 10.7783L11.2913 10.7753ZM10.1243 14.0558C10.1408 13.4303 9.37426 13.0553 9.37426 13.0553L4.29376 10.4888C4.29376 10.4888 3.54076 10.1783 3.17476 10.3943C2.89426 10.5593 2.64676 10.8593 2.62276 11.1233L2.29126 15.1973C2.29126 15.1973 2.24176 15.9038 2.42476 16.2248C2.68426 16.6808 3.53626 16.3628 3.53626 16.3628L9.46876 15.0518C9.69976 14.8973 10.1033 14.8823 10.1258 14.0558H10.1243ZM11.5988 16.2548C11.0903 15.9938 10.4798 16.5353 10.4798 16.5353L6.50776 20.9078C6.50776 20.9078 6.01276 21.5768 6.13876 21.9878C6.25726 22.3733 6.45376 22.5638 6.73276 22.6988L10.7213 23.9573C10.7213 23.9573 11.2043 24.0578 11.5718 23.9513C12.0923 23.8013 11.9963 22.9868 11.9963 22.9868L12.0863 17.0663C12.0863 17.0663 12.0653 16.4963 11.6003 16.2548H11.5988Z" fill="white"/>
</g>
<defs>
<clipPath id="clip0_1157_619">
<rect width="24" height="24" fill="white"/>
</clipPath>
</defs>
</svg>
