<svg width="77" height="20" viewBox="0 0 77 20" fill="none" xmlns="http://www.w3.org/2000/svg">
<path fill-rule="evenodd" clip-rule="evenodd" d="M12.2237 6.37982L11.3986 7.95682L11.3992 7.95462L10.5485 6.37763C10.5227 6.32768 10.4558 6.26538 10.3637 6.37833L10.3647 6.37708C10.1401 6.62941 9.8561 6.82585 9.53666 6.9499C9.21721 7.07395 8.87165 7.12197 8.52904 7.08993C8.18642 7.05788 7.85677 6.94671 7.56779 6.76576C7.27882 6.58481 7.03897 6.33937 6.86842 6.05008C6.69787 5.76079 6.60161 5.43611 6.58772 5.10334C6.57383 4.77056 6.64273 4.43943 6.78862 4.13777C6.93451 3.83612 7.15312 3.57277 7.42607 3.36987C7.69903 3.16696 8.01835 3.03044 8.35718 2.97177L8.28289 2.9811C7.71067 2.55804 7.27627 2.52512 7.15604 2.57999C5.49951 3.29771 5.14393 5.42671 7.09196 7.5184C7.0989 7.52808 7.10245 7.53966 7.10206 7.55144C7.10167 7.56322 7.09737 7.57457 7.0898 7.5838C7.08223 7.59303 7.07179 7.59966 7.06003 7.60271C7.04826 7.60575 7.03579 7.60505 7.02447 7.6007C4.34207 6.24811 4.78664 3.5166 5.00077 2.20095C5.05089 1.89302 5.08838 1.66264 5.07021 1.54567C5.00237 1.10515 4.74117 0.695746 4.56069 0.41287C4.51637 0.343398 4.47691 0.281556 4.44639 0.22876C4.43227 0.204688 4.42517 0.177365 4.42582 0.149697C4.42648 0.122029 4.43488 0.095051 4.45012 0.071633C4.46537 0.0482151 4.48688 0.0292332 4.51239 0.0167068C4.5379 0.00418035 4.56643 -0.00142206 4.59497 0.000495568C4.8429 0.0157153 5.26988 0.274065 5.8452 0.622175C7.09518 1.37849 9.04542 2.55851 11.381 2.58932C13.7172 2.5585 15.6684 1.37789 16.9183 0.621602C17.4931 0.273781 17.9196 0.0157069 18.1671 0.000495568C18.1963 -0.00178555 18.2256 0.00383875 18.2517 0.0167406C18.2778 0.0296425 18.2997 0.0493143 18.315 0.0735599C18.3302 0.0978055 18.3382 0.125671 18.338 0.154045C18.3378 0.18242 18.3295 0.210187 18.3139 0.234247C18.2843 0.285177 18.2461 0.344902 18.2033 0.412054C18.023 0.694344 17.7588 1.10789 17.6901 1.55116C17.6721 1.66728 17.7094 1.89649 17.7594 2.20313C17.9733 3.51635 18.4186 6.24969 15.7364 7.6029C15.7251 7.60724 15.7126 7.60795 15.7009 7.6049C15.6891 7.60186 15.6787 7.59523 15.6711 7.586C15.6635 7.57676 15.6592 7.56542 15.6588 7.55364C15.6584 7.54186 15.662 7.53027 15.6689 7.52059C17.617 5.42945 17.2614 3.30045 15.6049 2.58219C15.4846 2.53006 15.0502 2.56024 14.478 2.98329L14.4485 2.97945C14.7852 3.04282 15.1013 3.18321 15.3705 3.38889C15.6396 3.59457 15.854 3.85958 15.9958 4.16178C16.1375 4.46399 16.2024 4.79461 16.1852 5.12605C16.1679 5.45749 16.0689 5.78012 15.8965 6.067C15.7241 6.35389 15.4833 6.5967 15.1941 6.77515C14.9049 6.95361 14.5758 7.06253 14.2343 7.09283C13.8927 7.12312 13.5486 7.07391 13.2307 6.9493C12.9128 6.82469 12.6304 6.6283 12.4069 6.37653L12.4143 6.38421C12.3207 6.26624 12.2493 6.33099 12.2237 6.37982ZM9.47493 3.91799C9.19352 3.76488 8.87002 3.69982 8.54886 3.73174C8.19115 3.76729 7.85703 3.92105 7.60281 4.16713C7.34859 4.4132 7.1898 4.73654 7.1532 5.08267C7.12035 5.39342 7.18772 5.7064 7.34607 5.97862C7.50443 6.25084 7.74599 6.46896 8.0376 6.60302C8.32921 6.73708 8.65655 6.78051 8.9747 6.72735C9.29284 6.67419 9.58617 6.52704 9.81441 6.30611C10.0427 6.08518 10.1946 5.80131 10.2494 5.49347C10.3042 5.18563 10.2592 4.86891 10.1206 4.58682C9.98188 4.30473 9.75635 4.07109 9.47493 3.91799ZM15.3757 5.97635C15.5336 5.7038 15.6003 5.39066 15.5669 5.07992C15.5295 4.73408 15.3701 4.41123 15.1157 4.1657C14.8612 3.92017 14.527 3.76692 14.1695 3.73174C13.8482 3.70022 13.5248 3.76571 13.2436 3.91921C12.9623 4.07271 12.7371 4.30669 12.5988 4.58902C12.4606 4.87134 12.416 5.18816 12.4714 5.49597C12.5267 5.80377 12.6791 6.08745 12.9078 6.30805C13.1364 6.52865 13.43 6.67534 13.7483 6.72799C14.0666 6.78063 14.3939 6.73664 14.6853 6.60205C14.9767 6.46747 15.2179 6.24889 15.3757 5.97635ZM7.12697 19.1068C7.78037 19.3875 8.46106 19.6044 9.15893 19.7543C9.50789 18.5223 9.97889 17.3256 10.5654 16.1811C11.7112 13.9543 13.2737 11.9523 15.1737 10.2764H12.1646C10.574 11.9795 9.26651 13.9113 8.28898 16.0028L8.25155 16.0856C7.80142 17.065 7.42557 18.0747 7.12697 19.1068ZM7.19049 14.7117C7.59345 13.9157 8.04237 13.1422 8.53511 12.395H8.53057C7.79669 11.8722 7.26547 11.1262 7.02206 10.2764H4.19841C4.34633 11.1779 4.68932 12.0389 5.20494 12.8032C5.72055 13.5675 6.39716 14.2178 7.19049 14.7117ZM9.34656 11.2351L9.34948 11.2372H9.34494L9.34656 11.2351ZM10.1071 10.2764C9.84382 10.5896 9.5903 10.9091 9.34656 11.2351C9.00592 10.9828 8.73432 10.6537 8.55552 10.2764H10.1071ZM2.6088 10.2764H0.708984C0.829859 11.9106 1.34539 13.4946 2.21413 14.901C3.08286 16.3073 4.28056 17.4968 5.7109 18.3738C5.9457 17.6055 6.22092 16.8493 6.53548 16.1081C5.4688 15.4855 4.5615 14.6375 3.8815 13.6276C3.2015 12.6177 2.76641 11.4721 2.6088 10.2764ZM11.969 16.856C11.4557 17.8563 11.038 18.8999 10.7213 19.9738C10.9777 19.9917 11.2359 20.0007 11.496 20.0007C11.9919 20.0006 12.4872 19.9676 12.9784 19.9019C13.6935 17.8148 14.8338 15.8876 16.3319 14.2342C17.83 12.5808 19.6556 11.2348 21.7006 10.2759H17.6276C15.2389 12.0144 13.3015 14.2673 11.969 16.856ZM22.0539 11.8024C18.7586 13.4424 16.1834 16.1751 14.7988 19.5008V19.5014C16.5959 18.9397 18.2104 17.9341 19.4828 16.5838C20.7551 15.2336 21.6414 13.5855 22.0539 11.8024ZM50.2965 14.7601C51.0396 14.9655 51.8066 15.0681 52.5975 15.0681C53.5121 15.0681 54.2887 14.9328 54.927 14.6621C55.5654 14.3915 56.0418 14.0275 56.3562 13.5701C56.6801 13.1035 56.8421 12.5901 56.8421 12.0301C56.8421 11.3768 56.6659 10.8588 56.3133 10.4761C55.9703 10.0935 55.5559 9.81346 55.0699 9.63613C54.584 9.4588 53.9599 9.28146 53.1977 9.10413C52.4641 8.94546 51.9162 8.7868 51.5542 8.62813C51.2016 8.46013 51.0254 8.20813 51.0254 7.87213C51.0254 7.53613 51.1778 7.26546 51.4827 7.06013C51.7971 6.8548 52.2783 6.75213 52.9262 6.75213C53.8504 6.75213 54.7746 7.0088 55.6988 7.52213L56.4134 5.80013C55.956 5.52013 55.4225 5.30546 54.8127 5.15613C54.2029 5.0068 53.5788 4.93213 52.9405 4.93213C52.0258 4.93213 51.2493 5.06746 50.6109 5.33813C49.9821 5.6088 49.5104 5.97746 49.196 6.44413C48.8816 6.90146 48.7244 7.4148 48.7244 7.98413C48.7244 8.63746 48.8959 9.16013 49.2389 9.55213C49.5914 9.94413 50.0106 10.2288 50.4966 10.4061C50.9825 10.5835 51.6066 10.7608 52.3688 10.9381C52.8642 11.0501 53.2549 11.1528 53.5407 11.2461C53.8361 11.3395 54.0743 11.4655 54.2553 11.6241C54.4459 11.7735 54.5411 11.9648 54.5411 12.1981C54.5411 12.5155 54.3839 12.7721 54.0695 12.9681C53.7551 13.1548 53.2692 13.2481 52.6117 13.2481C52.021 13.2481 51.4303 13.1548 50.8396 12.9681C50.2488 12.7815 49.7391 12.5341 49.3103 12.2261L48.5243 13.9341C48.9721 14.2701 49.5628 14.5455 50.2965 14.7601ZM37.355 5.10013V14.9001H35.4542L30.4664 8.95013V14.9001H28.1797V5.10013H30.0948L35.0683 11.0501V5.10013H37.355ZM47.4681 13.0801V14.9001H39.722V5.10013H47.2824V6.92013H42.023V9.04813H46.6678V10.8121H42.023V13.0801H47.4681ZM60.3569 6.94813H57.1555V5.10013H65.8735V6.94813H62.6722V14.9001H60.3569V6.94813ZM71.3993 5H68.0391V5.82892H69.2386V9H70.1913V5.82892H71.3993V5ZM75.3041 6.71566L75.3126 9H76.2058L76.1888 5H75.4146L74.0365 7.40964L72.6244 5H71.8417V9H72.7349V6.77349L73.8068 8.58554H74.2322L75.3041 6.71566Z" fill="white"/>
</svg>
