<svg width="772" height="250" viewBox="0 0 772 250" fill="none" xmlns="http://www.w3.org/2000/svg">
<path d="M138.848 81.0811C138.351 81.0811 138.103 80.8335 138.103 80.3379V29.7973C138.103 29.3018 138.351 29.0541 138.848 29.0541H144.507C145.003 29.0541 145.251 29.3018 145.251 29.7973V74.6149C145.251 74.8132 145.35 74.9122 145.549 74.9122H171.238C171.734 74.9122 171.982 75.1598 171.982 75.6554V80.3379C171.982 80.8335 171.734 81.0811 171.238 81.0811H138.848ZM206.117 81.75C202.493 81.75 199.292 81.0068 196.512 79.5203C193.732 78.0338 191.572 75.9527 190.034 73.277C188.495 70.5517 187.726 67.4301 187.726 63.9122V46.223C187.726 42.7051 188.495 39.6081 190.034 36.9324C191.572 34.2568 193.732 32.1757 196.512 30.6892C199.292 29.2027 202.493 28.4595 206.117 28.4595C209.79 28.4595 213.017 29.2027 215.797 30.6892C218.577 32.1757 220.736 34.2568 222.275 36.9324C223.814 39.6081 224.583 42.7051 224.583 46.223V63.9122C224.583 67.4301 223.814 70.5517 222.275 73.277C220.736 75.9527 218.577 78.0338 215.797 79.5203C213.017 81.0068 209.79 81.75 206.117 81.75ZM206.117 75.5811C209.493 75.5811 212.223 74.5406 214.308 72.4595C216.393 70.3784 217.435 67.6284 217.435 64.2095V46.1487C217.435 42.6801 216.393 39.9054 214.308 37.8243C212.223 35.6936 209.493 34.6284 206.117 34.6284C202.741 34.6284 200.011 35.6936 197.927 37.8243C195.891 39.9054 194.874 42.6801 194.874 46.1487V64.2095C194.874 67.6284 195.891 70.3784 197.927 72.4595C200.011 74.5406 202.741 75.5811 206.117 75.5811ZM275.072 29.7973C275.072 29.3018 275.32 29.0541 275.817 29.0541H281.476C281.972 29.0541 282.22 29.3018 282.22 29.7973V80.3379C282.22 80.8335 281.972 81.0811 281.476 81.0811H276.04C275.693 81.0811 275.395 80.9078 275.147 80.5608L251.841 42.5811C251.791 42.4324 251.716 42.3828 251.617 42.4324C251.518 42.4324 251.468 42.5068 251.468 42.6554L251.543 80.3379C251.543 80.8335 251.295 81.0811 250.798 81.0811H245.139C244.643 81.0811 244.395 80.8335 244.395 80.3379V29.7973C244.395 29.3018 244.643 29.0541 245.139 29.0541H250.649C250.997 29.0541 251.295 29.2275 251.543 29.5743L274.774 67.5541C274.824 67.7027 274.899 67.777 274.998 67.777C275.097 67.7274 275.147 67.6284 275.147 67.4797L275.072 29.7973ZM320.184 81.6757C316.61 81.6757 313.433 80.9821 310.653 79.5946C307.923 78.1578 305.788 76.151 304.249 73.5743C302.76 70.9483 302.016 67.9503 302.016 64.5811V45.5541C302.016 42.1351 302.76 39.1375 304.249 36.5608C305.788 33.9841 307.923 32.0023 310.653 30.6149C313.433 29.178 316.61 28.4595 320.184 28.4595C323.758 28.4595 326.91 29.1532 329.64 30.5406C332.371 31.928 334.48 33.8605 335.969 36.3379C337.508 38.7659 338.278 41.5159 338.278 44.5879V45.4054C338.278 45.901 338.029 46.1487 337.533 46.1487H331.874C331.378 46.1487 331.129 45.901 331.129 45.4054V44.7365C331.129 41.7635 330.112 39.3605 328.077 37.527C326.091 35.6443 323.46 34.7027 320.184 34.7027C316.858 34.7027 314.178 35.6689 312.142 37.6014C310.157 39.5338 309.164 42.1105 309.164 45.3311V64.8041C309.164 68.0247 310.206 70.6014 312.291 72.5338C314.376 74.4662 317.106 75.4324 320.482 75.4324C323.758 75.4324 326.339 74.5902 328.225 72.9054C330.161 71.1713 331.129 68.8176 331.129 65.8446V60.1216C331.129 59.9233 331.03 59.8243 330.832 59.8243H320.779C320.283 59.8243 320.035 59.5767 320.035 59.0811V54.473C320.035 53.9774 320.283 53.7297 320.779 53.7297H337.533C338.029 53.7297 338.278 53.9774 338.278 54.473V63.9122C338.278 69.6105 336.639 73.9956 333.363 77.0676C330.137 80.1395 325.744 81.6757 320.184 81.6757ZM409.645 53.9527C409.398 54.1014 409.398 54.25 409.645 54.3987C414.908 56.6284 417.538 60.7659 417.538 66.8108C417.538 71.3693 416.025 74.8875 412.996 77.3649C409.97 79.8422 406.024 81.0811 401.157 81.0811H382.616C382.122 81.0811 381.872 80.8335 381.872 80.3379V29.7973C381.872 29.3018 382.122 29.0541 382.616 29.0541H400.561C405.726 29.0541 409.72 30.2433 412.549 32.6216C415.429 34.9504 416.868 38.3693 416.868 42.8784C416.868 48.2297 414.461 51.9213 409.645 53.9527ZM389.318 35.223C389.121 35.223 389.02 35.322 389.02 35.5203V51.2027C389.02 51.401 389.121 51.5 389.318 51.5H400.561C403.441 51.5 405.699 50.7814 407.337 49.3446C409.026 47.9078 409.868 45.9504 409.868 43.473C409.868 40.946 409.026 38.9392 407.337 37.4527C405.699 35.9662 403.441 35.223 400.561 35.223H389.318ZM401.157 74.8379C403.986 74.8379 406.22 74.0699 407.858 72.5338C409.547 70.9483 410.39 68.8176 410.39 66.1419C410.39 63.4662 409.547 61.3605 407.858 59.8243C406.173 58.2389 403.864 57.446 400.933 57.446H389.318C389.121 57.446 389.02 57.5449 389.02 57.7433V74.5406C389.02 74.7389 389.121 74.8379 389.318 74.8379H401.157ZM471.897 34.4797C471.897 34.9754 471.647 35.223 471.152 35.223H444.719C444.519 35.223 444.421 35.322 444.421 35.5203V51.5C444.421 51.6983 444.519 51.7973 444.719 51.7973H462.887C463.382 51.7973 463.632 52.0449 463.632 52.5406V57.223C463.632 57.7186 463.382 57.9662 462.887 57.9662H444.719C444.519 57.9662 444.421 58.0652 444.421 58.2635V74.6149C444.421 74.8132 444.519 74.9122 444.719 74.9122H471.152C471.647 74.9122 471.897 75.1598 471.897 75.6554V80.3379C471.897 80.8335 471.647 81.0811 471.152 81.0811H438.018C437.52 81.0811 437.273 80.8335 437.273 80.3379V29.7973C437.273 29.3018 437.52 29.0541 438.018 29.0541H471.152C471.647 29.0541 471.897 29.3018 471.897 29.7973V34.4797ZM522.354 81.0811C521.907 81.0811 521.609 80.8828 521.46 80.4865L518.78 71.7906C518.732 71.6419 518.631 71.5676 518.482 71.5676H497.559C497.41 71.5676 497.312 71.6419 497.261 71.7906L494.58 80.4865C494.431 80.8828 494.134 81.0811 493.687 81.0811H487.655C487.111 81.0811 486.911 80.8085 487.06 80.2635L503.367 29.6487C503.515 29.2523 503.813 29.0541 504.26 29.0541H511.706C512.153 29.0541 512.451 29.2523 512.6 29.6487L529.055 80.2635L529.13 80.5608C529.13 80.9078 528.906 81.0811 528.46 81.0811H522.354ZM499.122 65.5473C499.075 65.6463 499.075 65.7456 499.122 65.8446C499.224 65.8943 499.322 65.9189 499.42 65.9189H516.546C516.648 65.9189 516.722 65.8943 516.769 65.8446C516.871 65.7456 516.895 65.6463 516.844 65.5473L508.206 37.973C508.159 37.874 508.085 37.8243 507.983 37.8243C507.885 37.8243 507.81 37.874 507.76 37.973L499.122 65.5473ZM562.207 81.75C558.633 81.75 555.458 81.0564 552.676 79.6689C549.948 78.2321 547.812 76.2253 546.272 73.6487C544.783 71.0226 544.039 68.0247 544.039 64.6554V45.4054C544.039 42.0362 544.783 39.0879 546.272 36.5608C547.812 33.9841 549.948 32.0023 552.676 30.6149C555.458 29.178 558.633 28.4595 562.207 28.4595C565.781 28.4595 568.935 29.1532 571.663 30.5406C574.395 31.8784 576.503 33.7862 577.992 36.2635C579.532 38.7409 580.301 41.6149 580.301 44.8851V44.9595C580.301 45.2071 580.226 45.4054 580.077 45.5541C579.928 45.7027 579.756 45.777 579.556 45.777L573.897 46.0743C573.403 46.0743 573.152 45.8514 573.152 45.4054V45.1824C573.152 42.0112 572.161 39.4595 570.174 37.527C568.191 35.5946 565.534 34.6284 562.207 34.6284C558.883 34.6284 556.203 35.5946 554.165 37.527C552.182 39.4595 551.187 42.0112 551.187 45.1824V64.9527C551.187 68.124 552.182 70.6757 554.165 72.6081C556.203 74.5406 558.883 75.5068 562.207 75.5068C565.534 75.5068 568.191 74.5406 570.174 72.6081C572.161 70.6757 573.152 68.124 573.152 64.9527V64.8041C573.152 64.3581 573.403 64.1351 573.897 64.1351L579.556 64.4324C580.054 64.4324 580.301 64.6801 580.301 65.1757C580.301 68.446 579.532 71.3446 577.992 73.8716C576.503 76.349 574.395 78.2814 571.663 79.6689C568.935 81.0564 565.781 81.75 562.207 81.75ZM628.585 29.7973C628.585 29.3018 628.832 29.0541 629.329 29.0541H634.988C635.482 29.0541 635.733 29.3018 635.733 29.7973V80.3379C635.733 80.8335 635.482 81.0811 634.988 81.0811H629.329C628.832 81.0811 628.585 80.8335 628.585 80.3379V58.2635C628.585 58.0652 628.483 57.9662 628.287 57.9662H607.066C606.866 57.9662 606.768 58.0652 606.768 58.2635V80.3379C606.768 80.8335 606.517 81.0811 606.023 81.0811H600.364C599.867 81.0811 599.62 80.8335 599.62 80.3379V29.7973C599.62 29.3018 599.867 29.0541 600.364 29.0541H606.023C606.517 29.0541 606.768 29.3018 606.768 29.7973V51.5C606.768 51.6983 606.866 51.7973 607.066 51.7973H628.287C628.483 51.7973 628.585 51.6983 628.585 51.5V29.7973Z" fill="#0A7241"/>
<path d="M47.516 118.428V204.102C47.516 216.929 47.3836 225.19 47.1193 228.885C46.855 232.527 45.6386 235.827 43.4704 238.783C41.3551 241.739 38.4464 243.798 34.7444 244.959C31.0955 246.067 25.5692 246.622 18.1655 246.622H1.42786V224.214C3.43741 224.372 4.89172 224.451 5.79076 224.451C8.1705 224.451 10.0479 223.87 11.4228 222.709C12.7978 221.548 13.5911 220.122 13.8026 218.433C14.0141 216.744 14.1199 213.471 14.1199 208.615V118.428H47.516ZM230.506 118.428V246.622H201.236L183.863 188.345V246.622H155.941V118.428H183.863L202.584 176.151V118.428H230.506ZM283.886 118.428V246.622H250.49V118.428H283.886ZM371.058 118.428V144.082H351.228V246.622H317.831V144.082H298.079V118.428H371.058ZM461.483 193.491C461.483 206.371 461.165 215.504 460.532 220.888C459.95 226.219 458.044 231.102 454.819 235.537C451.647 239.97 447.335 243.375 441.89 245.751C436.444 248.126 430.098 249.314 422.852 249.314C415.978 249.314 409.791 248.205 404.291 245.988C398.842 243.718 394.452 240.34 391.121 235.853C387.791 231.366 385.808 226.483 385.171 221.205C384.539 215.926 384.22 206.688 384.22 193.491V171.558C384.22 158.678 384.511 149.572 385.094 144.241C385.726 138.857 387.632 133.947 390.803 129.513C394.029 125.079 398.368 121.674 403.813 119.299C409.259 116.924 415.605 115.736 422.852 115.736C429.726 115.736 435.885 116.871 441.335 119.141C446.834 121.358 451.251 124.71 454.582 129.197C457.912 133.683 459.895 138.566 460.532 143.845C461.165 149.124 461.483 158.362 461.483 171.558V193.491ZM428.087 151.367C428.087 145.402 427.742 141.602 427.055 139.965C426.422 138.276 425.072 137.431 423.011 137.431C421.264 137.431 419.917 138.118 418.963 139.49C418.066 140.81 417.616 144.769 417.616 151.367V211.228C417.616 218.671 417.907 223.263 418.489 225.005C419.122 226.747 420.55 227.618 422.77 227.618C425.045 227.618 426.5 226.615 427.136 224.609C427.769 222.603 428.087 217.826 428.087 210.278V151.367ZM480.514 118.428H504.155C519.914 118.428 530.568 119.035 536.122 120.249C541.727 121.463 546.276 124.578 549.765 129.593C553.309 134.554 555.079 142.499 555.079 153.426C555.079 163.403 553.837 170.107 551.353 173.538C548.865 176.969 543.974 179.028 536.677 179.714C543.287 181.35 547.731 183.541 550.002 186.286C552.277 189.031 553.678 191.565 554.209 193.887C554.788 196.157 555.079 202.465 555.079 212.812V246.622H524.063V204.022C524.063 197.16 523.508 192.911 522.398 191.274C521.342 189.638 518.512 188.82 513.909 188.82V246.622H480.514V118.428ZM513.909 140.361V168.866C517.666 168.866 520.282 168.365 521.765 167.362C523.298 166.306 524.063 162.954 524.063 157.306V150.259C524.063 146.194 523.325 143.528 521.843 142.262C520.414 140.995 517.771 140.361 513.909 140.361ZM607.983 118.428V246.622H574.588V118.428H607.983ZM685.557 118.428L704.676 246.622H670.485L668.82 223.58H656.842L654.859 246.622H620.272L637.249 118.428H685.557ZM667.869 200.855C666.177 186.339 664.484 168.418 662.792 147.092C659.408 171.585 657.292 189.506 656.446 200.855H667.869ZM750.279 118.428V220.967H770.586V246.622H716.884V118.428H750.279Z" fill="black"/>
<path d="M75.187 131.788L87.7521 234.516H77.2468C76.4741 234.516 75.8047 235.313 75.6503 236.418L74.5947 244.694C74.4657 245.799 73.7963 246.596 73.0239 246.596H62.5444C61.5402 246.596 60.7678 245.285 60.9479 243.846L75.187 131.788Z" fill="#0A7241"/>
<path fill-rule="evenodd" clip-rule="evenodd" d="M137.498 243.897L123.079 125.928C122.77 123.383 121.765 121.25 120.375 119.863C119.345 118.835 118.083 118.243 116.744 118.243H85.3058C84.5849 118.243 83.8897 118.423 83.246 118.731C80.3366 120.145 78.4054 124.489 78.972 129.141L91.8718 234.516L93.1075 244.694C93.1075 244.694 93.1075 244.874 93.159 244.951C93.3651 245.928 93.9831 246.596 94.704 246.596H104.746C105.75 246.596 106.522 245.285 106.342 243.872L105.518 237.189C105.338 235.776 106.111 234.465 107.115 234.465H121.765C122.538 234.465 123.207 235.262 123.362 236.393L124.392 244.694C124.52 245.799 125.19 246.622 125.988 246.622H136.03H136.107C137.497 246.595 137.767 245.983 137.498 243.897ZM100.574 141.837C101.347 142.197 102.12 142.377 102.918 142.377C106.857 142.377 109.484 137.776 108.788 132.096H94.5239C95.0645 136.62 97.588 140.475 100.574 141.837Z" fill="#45AF49"/>
</svg>
