<svg width="16" height="15" viewBox="0 0 16 15" fill="none" xmlns="http://www.w3.org/2000/svg"><path d="M15.5437 10.5995l-3.5001-1.40624c-.1495-.05974-.3156-.07233-.4735-.03587-.1578.03646-.2987.11999-.4015.23802L9.61861 11.1708c-2.43263-1.0752-4.39033-2.91059-5.53729-5.19117L5.9751 4.52647c.12616-.09619.21544-.22829.25435-.37631.03891-.14801.02532-.30388-.03872-.44401L4.69071.42484C4.62043.273785 4.49613.150453 4.33925.076112c-.15689-.07434-.33652-.095032-.50793-.058506L.58126.720743C.415998.756521.26855.843757.162983.968214.057415 1.09267-.000038 1.247 0 1.40601 0 8.92079 6.49699 15 14.5003 15c.1696.0001.3343-.0537.4671-.1527.1328-.099.2259-.2372.2641-.3922l.75-3.047c.0387-.1614.0162-.3305-.0637-.4781s-.2122-.2644-.3741-.3305z" fill="#53AF3B"/></svg>