<?xml version="1.0" encoding="UTF-8"?>
<svg width="190px" height="64px" viewBox="0 0 190 64" version="1.1" xmlns="http://www.w3.org/2000/svg" xmlns:xlink="http://www.w3.org/1999/xlink">
    <!-- Generator: Sketch 64 (93537) - https://sketch.com -->
    <title>Dark</title>
    <desc>Created with Sketch.</desc>
    <g id="Symbols" stroke="none" stroke-width="1" fill="none" fill-rule="evenodd">
        <g id="Nav-Dark">
            <g id="Dark">
                <g>
                    <rect id="Rectangle" fill="#FFC56D" fill-rule="nonzero" x="24" y="38" width="3" height="3"></rect>
                    <rect id="Rectangle" fill="#FFC56D" fill-rule="nonzero" x="24" y="33" width="3" height="3"></rect>
                    <rect id="Rectangle" fill="#FFC56D" fill-rule="nonzero" x="20" y="38" width="3" height="3"></rect>
                    <rect id="Rectangle" fill="#FFC56D" fill-rule="nonzero" x="20" y="33" width="3" height="3"></rect>
                    <path d="M37.9811874,39.5 L37.7601391,39.5 C36.4009273,39.5 37.1064006,39.5 38,39.5 L37.9811874,39.5 Z" id="Path" fill="#474A52"></path>
                    <path d="M17.14599,13 C18.8322026,12.9985473 20.3532762,14.0106318 21,15.5643638 L15.5571007,21 C13.7300849,20.2345941 12.6948013,18.2925103 13.0799755,16.3531724 C13.4651498,14.4138344 15.16449,13.0124184 17.14599,13" id="Path" fill="#FFC56D"></path>
                    <path d="M23.981171,22.442103 L0,46 L37.5892586,46 C50.4624684,46 61,35.6498738 61,23 C61,10.3501262 50.4624684,0 37.5892586,0 L0.051390059,0 L0.051390059,41.1960268 L2.49498736,38.7978268 L2.49498736,2.39819998 L37.5892586,2.39819998 C49.1705115,2.39820015 58.5589719,11.6219401 58.5589719,23 C58.5589719,34.3780599 49.1705115,43.6017999 37.5892586,43.6018 L5.90985678,43.6018 L23.9734625,25.8551202 L37.8153749,39.4541763 C47.0650511,39.3949228 54.5145029,31.9801027 54.4541912,22.8927121 C54.3938796,13.8053215 46.8466433,6.48657026 37.5969671,6.54582373 L6.7141112,6.54582373 L6.7141112,34.6502031 L23.981171,17.6860937 L31.4687026,25.0422566 L31.4687026,21.626715 L23.981171,14.2705521 L9.15770851,28.833937 L9.15770851,8.94654813 L37.6046757,8.94654813 C45.2542289,8.94047669 51.554861,14.8481741 51.9056098,22.355614 C52.2563586,29.8630539 46.5330763,36.3129713 38.9151222,36.9953902 L38.8046335,36.9953902 L23.981171,22.442103 Z M42.7565291,32.7139721 L37.3245998,27.3798705 L37.3245998,17.1231478 L34.8655855,17.1231478 L34.8655855,28.3795412 L40.2384162,33.6581056 C41.1137898,33.4453149 41.9594247,33.1282551 42.7565291,32.7139721 L42.7565291,32.7139721 Z" id="Shape" fill="#202945"></path>
                    <path d="M184.519712,57.8857193 L184.519712,62.2360312 L185.834506,62.2360312 C186.459236,62.2651711 187.067231,62.038007 187.505351,61.611757 C187.943471,61.1855069 188.169954,60.600801 188.127753,60.0049149 C188.10482,58.7226921 187.164589,57.8857193 185.834506,57.8857193 L184.519712,57.8857193 Z M151.463837,60.413669 L151.463837,62.2360312 L153.193964,62.2360312 C153.792756,62.2360312 154.656546,62.1314096 154.656546,61.3893262 C154.656546,60.6472428 153.909967,60.4161021 153.250021,60.4161021 L151.463837,60.413669 Z M151.463837,57.8467904 L151.463837,59.605893 L153.247473,59.605893 C153.823333,59.605893 154.46799,59.4696416 154.46799,58.80055 C154.46799,58.1314584 153.815689,57.8467904 153.193964,57.8467904 L151.463837,57.8467904 Z M94.685601,57.8784201 L94.685601,60.1387332 L96.5380346,60.1387332 C97.3228345,60.1387332 97.7942241,59.7786403 97.8120605,59.0073601 C97.8250436,58.6991502 97.7003545,58.4001732 97.4690353,58.1848616 C97.237716,57.96955 96.9215278,57.858159 96.5991879,57.8784201 L94.685601,57.8784201 Z M76.3600132,57.8784201 L76.3600132,60.3382442 L78.2532156,60.3382442 C79.9119973,60.3382442 79.9145453,57.8784201 78.2532156,57.8784201 L76.3600132,57.8784201 Z M0.87143368,57.8784201 L0.87143368,62.2287321 L2.1836803,62.2287321 C2.80887152,62.2594634 3.41786526,62.0328053 3.8563668,61.6061839 C4.29486834,61.1795626 4.52080259,60.5939131 4.47692683,59.9976157 C4.44889826,58.7153929 3.51631134,57.8784201 2.1836803,57.8784201 L0.87143368,57.8784201 Z M185.834506,57.0706441 C187.648719,57.0706441 188.960966,58.2458123 188.999187,59.9903165 C189.037407,61.7907812 187.725161,63.0438073 185.834506,63.0438073 L183.650826,63.0438073 L183.650826,57.0779433 L185.834506,57.0779433 L185.834506,57.0706441 Z M176.103497,62.2360312 L179.382839,62.2360312 L179.382839,63.0438073 L175.232063,63.0438073 L175.232063,57.0779433 L176.103497,57.0779433 L176.103497,62.2360312 Z M170.497783,63.0438073 L169.636542,63.0438073 L169.636542,57.0779433 L170.497783,57.0779433 L170.497783,63.0438073 Z M164.081789,57.0706441 L164.945578,57.0706441 L164.945578,60.7202346 C164.945578,63.8832131 160.063511,63.8832131 160.063511,60.7202346 L160.063511,57.0706441 L160.924753,57.0706441 L160.924753,60.7202346 C160.901483,61.2731791 161.197153,61.7939011 161.69513,62.0769877 C162.193106,62.3600742 162.813436,62.3600742 163.311412,62.0769877 C163.809389,61.7939011 164.105059,61.2731791 164.081789,60.7202346 L164.081789,57.0706441 Z M154.666738,59.9781512 C155.19831,60.2664124 155.523443,60.8080874 155.515239,61.3917593 C155.515239,62.6593837 154.315107,63.0462403 153.191416,63.0462403 L150.589855,63.0462403 L150.589855,57.0779433 L153.191416,57.0779433 C154.304915,57.0779433 155.313943,57.6351141 155.313943,58.80055 C155.322713,59.2728055 155.078727,59.7167424 154.666738,59.9781512 Z M137.666137,57.0584788 L137.666137,64 L136.802348,64 L136.802348,57.0584788 L137.666137,57.0584788 Z M121.317837,57.8881524 L119.210599,57.8881524 L119.210599,57.1047069 L124.293962,57.1047069 L124.293962,57.8881524 L122.189271,57.8881524 L122.189271,63.0608387 L121.317837,63.0608387 L121.317837,57.8881524 Z M114.662326,63.0511065 L113.798537,63.0511065 L113.798537,57.0779433 L114.662326,57.0779433 L114.662326,63.0511065 Z M108.185179,58.5767085 L106.279236,61.3649956 L105.902125,61.3649956 L103.960509,58.5718423 L103.960509,63.0511065 L103.089076,63.0511065 L103.089076,57.0779433 L103.960509,57.0779433 L106.075392,60.1581977 L108.167343,57.0779433 L109.041324,57.0779433 L109.041324,63.0511065 L108.180083,63.0511065 L108.185179,58.5767085 Z M97.0705774,60.8881158 L99.1599798,63.0511065 L97.9955202,63.0511065 L95.9825593,60.9465093 L94.7085335,60.9465093 L94.7085335,63.0511065 L93.8370998,63.0511065 L93.8370998,57.0779433 L96.6119281,57.0779433 C97.7993202,57.0779433 98.726811,57.8540895 98.7344552,59.0243916 C98.7766626,59.9693798 98.0449183,60.7840229 97.0603852,60.8881158 L97.0705774,60.8881158 Z M85.6756902,57.8857193 L85.6756902,59.6545542 L89.0875315,59.6545542 L89.0875315,60.4452988 L85.6756902,60.4452988 L85.6756902,62.2360312 L89.3550769,62.2360312 L89.3550769,63.0511065 L84.8144488,63.0511065 L84.8144488,57.0779433 L89.2557029,57.0779433 L89.2557029,57.8857193 L85.6756902,57.8857193 Z M76.3600132,61.1289888 L76.3600132,63.0511065 L75.4885795,63.0511065 L75.4885795,57.0779433 L78.2532156,57.0779433 C81.0560725,57.0779433 81.0560725,61.1289888 78.2532156,61.1289888 L76.3600132,61.1289888 Z M62.5699575,57.0584788 L62.5699575,64 L61.7061679,64 L61.7061679,57.0584788 L62.5699575,57.0584788 Z M47.8855355,61.3309328 L47.8855355,57.0779433 L48.746777,57.0779433 L48.746777,63.0511065 L48.2600991,63.0511065 L44.6418657,58.8151484 L44.6418657,63.0511065 L43.7729801,63.0511065 L43.7729801,57.0779433 L44.2825904,57.0779433 L47.8855355,61.3309328 Z M38.2437079,61.7932143 L38.2437079,60.5255898 L36.2052666,60.5255898 L36.2052666,59.7348452 L39.087113,59.7348452 L39.087113,62.0997799 L39.0259598,62.1606064 C38.4150942,62.7744726 37.5660161,63.1204321 36.6792042,63.1168274 C34.7809057,63.1168274 33.468659,61.9002689 33.4661072,60.0779067 C33.4635629,58.2555445 34.7656173,57.0000854 36.6792042,57.0000854 C37.5377025,56.9939822 38.3632226,57.3154192 38.9724507,57.8930185 L39.1151416,58.0292699 L38.5724066,58.5937399 L38.4195235,58.4477563 C37.9538203,58.0241156 37.3351519,57.7879905 36.6919444,57.7883969 C35.2752277,57.7883969 34.3273525,58.720259 34.3324486,60.0657414 C34.3375447,61.4112238 35.2726796,62.30659 36.6919444,62.30659 C37.2569804,62.3087792 37.8053494,62.123921 38.2437079,61.783482 L38.2437079,61.7932143 Z M29.0121166,63.0608387 L28.1508751,63.0608387 L28.1508751,57.0779433 L29.0121166,57.0779433 L29.0121166,63.0608387 Z M23.6459197,58.2190486 L22.9120809,58.6326689 L22.8025146,58.4672207 C22.4355952,57.9100499 21.8597355,57.8102944 21.2150784,57.8054283 C20.6111902,57.8054283 19.6633149,58.0025062 19.6633149,58.7348574 C19.6633149,59.3844845 20.7844577,59.4964053 21.2711356,59.5839955 C22.3922783,59.7883725 23.7376496,60.0122141 23.7325679,61.3820271 C23.7274574,62.75184 22.3948264,63.1411297 21.2176265,63.1411297 C20.1984058,63.1411297 19.1180319,62.7275094 18.6389982,61.822411 L18.5447202,61.6423645 L19.3091358,61.2725393 L19.4034137,61.4501527 C19.7193721,62.0389534 20.5449408,62.3503851 21.2074343,62.3503851 C21.8699277,62.3503851 22.8483796,62.18737 22.8534757,61.3771609 C22.8534757,60.6180461 21.689016,60.491527 21.1080603,60.3820392 C20.1296084,60.1971267 18.8046215,59.9781512 18.7918813,58.761621 C18.7918813,57.4891305 20.0811954,57.0146837 21.2176265,57.0146837 C22.2164627,57.0146837 22.9426575,57.2239269 23.510873,58.0487344 L23.6459197,58.2190486 Z M10.6865288,57.8857193 L10.6865288,59.6545542 L14.09837,59.6545542 L14.09837,60.4452988 L10.6865288,60.4452988 L10.6865288,62.2360312 L14.3659155,62.2360312 L14.3659155,63.0511065 L9.82528734,63.0511065 L9.82528734,57.0779433 L14.2690895,57.0779433 L14.2690895,57.8857193 L10.6865288,57.8857193 Z M2.1836803,57.0779433 C4.00044116,57.0779433 5.30759168,58.2531114 5.34836051,59.9976157 C5.39167739,61.8005134 4.07433466,63.0511065 2.1836803,63.0511065 L0,63.0511065 L0,57.0779433 L2.1836803,57.0779433 Z" id="Shape" fill="#202945" fill-rule="nonzero"></path>
                    <path d="M70.7544983,3.8731688 L70.7544983,19.0490959 L75.4340142,19.0490959 C80.1647564,19.0490959 83.3305372,15.7892306 83.23833,11.2755708 C83.1486841,6.8622146 79.9982711,3.87818398 75.4340142,3.87818398 L70.7544983,3.8731688 Z M187.271115,16.9778276 L187.271115,2.23320575 L189,2.23320575 L189,20.7166425 L188.203432,20.7166425 L175.950118,6.00461924 L175.950118,20.7166425 L174.19562,20.7166425 L174.19562,2.23320575 L175.045976,2.23320575 L187.271115,16.9778276 Z M163.409938,17.3088294 L163.409938,12.4491223 L156.952872,12.4491223 L156.952872,10.914478 L165.085036,10.914478 L165.085036,17.9357265 L165.038932,17.9833707 C163.074406,19.9041837 160.730806,20.957371 157.936415,20.957371 C152.140168,20.957371 148.231607,17.1959879 148.216207,11.5463904 C148.203432,5.85667151 152.129923,2.01755033 157.936415,2.01755033 C160.51391,2.01563113 162.988735,3.00641493 164.826343,4.77590075 L164.936479,4.88372707 L163.896587,5.99960406 L163.776205,5.88425498 C162.202579,4.41485901 160.111025,3.59578545 157.936415,3.59733404 C153.118589,3.59733404 149.906704,6.87976772 149.919511,11.5213145 C149.934879,16.2029827 153.110905,19.3199155 157.936415,19.3199155 C159.952745,19.3282945 161.901476,18.6087189 163.409938,17.298799 L163.409938,17.3088294 Z M139.845873,20.7266728 L138.116988,20.7266728 L138.116988,2.23320575 L139.845873,2.23320575 L139.845873,20.7266728 Z M129.367548,5.30500198 L127.917846,6.14253662 L127.830761,6.00963442 C126.570596,4.02362413 124.572773,3.63745546 122.3598,3.62491751 C120.146827,3.61237957 116.911891,4.42734592 116.911891,7.13554177 C116.911891,9.64313053 120.551514,10.0468523 122.444323,10.3954072 C125.733047,11.0072588 129.872127,11.6166029 129.854255,15.7616471 C129.841391,19.8239409 125.79708,21 122.3598,21 C119.329769,21 116.05129,19.7462056 114.619517,16.9728125 L114.545239,16.8298799 L116.107639,16.0776033 L116.179356,16.2205358 C117.265352,18.31688 120.067427,19.4227267 122.3598,19.4227267 C124.793046,19.4227267 128.086892,18.7331398 128.099699,15.7466016 C128.112506,12.9080111 124.306397,12.426554 122.14465,12.0153095 C119.281104,11.4611324 115.159954,10.8367428 115.159954,7.19823149 C115.080553,3.33152963 119.081322,2 122.354678,2 C125.336044,2 127.513159,2.59179095 129.270218,5.15454665 L129.367548,5.30500198 Z M95.1714798,3.8731688 L95.1714798,10.6286129 L106.023756,10.6286129 L106.023756,12.213409 L95.1714798,12.213409 L95.1714798,19.0490959 L106.868989,19.0490959 L106.868989,20.7166425 L93.4425946,20.7166425 L93.4425946,2.23320575 L106.551386,2.23320575 L106.551386,3.8731688 L95.1714798,3.8731688 Z M75.4340142,2.23320575 C80.9869373,2.23320575 84.8673241,5.88927016 84.9928283,11.2605253 C85.1234552,16.8198495 81.1764744,20.7141349 75.4340142,20.7141349 L69,20.7141349 L69,2.23320575 L75.4340142,2.23320575 Z" id="Shape" fill="#202945"></path>
                    <path d="M190,28.0100503 L186.420638,28.0100503 L181.307264,40.959799 L176.211786,28.0100503 L172.632424,28.0100503 L179.6582,44.7160804 L182.966554,44.7160804 L190,28.0100503 Z M163.804183,28.0577889 L163.804183,37.5728643 C163.804183,40.4221106 162.308521,42.1532663 159.675133,42.1532663 C157.041745,42.1532663 155.303198,40.5628141 155.303198,37.5728643 L155.303198,28.0577889 L152.140576,28.0577889 L152.140576,37.5728643 C152.140576,42.580402 155.59466,45 159.652123,45 C163.901337,45 166.966805,42.4874372 166.966805,37.5728643 L166.966805,28.0577889 L163.804183,28.0577889 Z M139.686953,30.9296482 C141.691395,30.9296482 142.583679,32.2613065 142.583679,33.5979899 C142.583679,34.9346734 141.711849,36.2688442 139.686953,36.2688442 L134.829247,36.2688442 L134.829247,30.9296482 L139.686953,30.9296482 Z M146.615575,44.4346734 L141.5022,38.7638191 C144.7134,38.120603 145.776981,35.8190955 145.776981,33.5301508 C145.776981,30.6457286 143.675385,28.0351759 139.692066,28.0025126 C137.012658,28.0251256 134.323023,28.0025126 131.651285,28.0025126 L131.651285,44.638191 L134.829247,44.638191 L134.829247,39.0854271 L137.897271,39.0854271 L142.824008,44.638191 L146.615575,44.638191 L146.615575,44.4346734 Z M119.547927,28.0100503 C116.891529,27.9874372 114.237688,28.0100503 111.58129,28.0100503 L111.58129,44.6457286 L114.766922,44.6457286 L114.766922,39.7562814 L119.547927,39.7562814 C127.831594,39.7562814 127.808584,28.0100503 119.547927,28.0100503 Z M114.766922,31 L119.547927,31 C123.60539,31 123.638627,36.8844221 119.547927,36.8844221 L114.766922,36.8844221 L114.766922,31 Z M99.5111698,28.0100503 C96.8547718,27.9874372 94.1958171,28.0100503 91.5419758,28.0100503 L91.5419758,44.6457286 L94.727608,44.6457286 L94.727608,39.7562814 L99.5111698,39.7562814 C107.79228,39.7562814 107.769269,28.0100503 99.5111698,28.0100503 Z M94.727608,31 L99.5111698,31 C103.566076,31 103.601869,36.8844221 99.5111698,36.8844221 L94.727608,36.8844221 L94.727608,31 Z M80.4612934,38.5929648 L74.1820697,38.5929648 L77.3216815,31.5050251 L80.4612934,38.5929648 Z M83.1637118,44.6457286 L86.6433631,44.6457286 L79.0602288,28.0100503 L75.5831342,28.0100503 L68,44.6457286 L71.4540844,44.6457286 L72.9011694,41.5125628 L81.739637,41.5125628 L83.1637118,44.6457286 Z" id="Shape" fill="#202945" fill-rule="nonzero"></path>
                </g>
            </g>
        </g>
    </g>
</svg>