<?xml version="1.0" encoding="UTF-8"?>
<svg width="18px" height="18px" viewBox="0 0 18 18" version="1.1" xmlns="http://www.w3.org/2000/svg" xmlns:xlink="http://www.w3.org/1999/xlink">
    <!-- Generator: Sketch 64 (93537) - https://sketch.com -->
    <title>Group 7</title>
    <desc>Created with Sketch.</desc>
    <defs>
        <polygon id="path-1" points="0 0.0375397167 17.9703979 0.0375397167 17.9703979 8.60869565 0 8.60869565"></polygon>
        <polygon id="path-3" points="0.0268574174 0.0243082192 11.9917182 0.0243082192 11.9917182 6.97389384 0.0268574174 6.97389384"></polygon>
    </defs>
    <g id="Symbols" stroke="none" stroke-width="1" fill="none" fill-rule="evenodd" opacity="0.699999988">
        <g id="CTA-Copy-2" transform="translate(-472.000000, -1080.000000)">
            <g id="Footer" transform="translate(0.000000, 720.000000)">
                <g id="Group-7">
                    <g transform="translate(472.000000, 360.000000)">
                        <g id="Group-3" transform="translate(0.000000, 9.000000)">
                            <mask id="mask-2" fill="white">
                                <use xlink:href="#path-1"></use>
                            </mask>
                            <g id="Clip-2"></g>
                            <path d="M11.8623581,8.16859785 C13.0265332,5.23931988 15.1917851,2.83280254 17.9704218,1.38281768 C17.2689947,4.58994372 14.9145279,7.17458368 11.8623581,8.16859785 M8.4294191,8.58505559 C8.69655438,7.64032379 9.04796021,6.71875809 9.48062865,5.83709223 C10.5981088,3.55897987 12.2384005,1.56621192 14.2448515,0.0375397167 L17.6737798,0.0375397167 C14.195626,1.74704289 11.5485279,4.79955095 10.3297798,8.52169946 C9.92155703,8.57867162 9.50497878,8.60870532 9.0815252,8.60870532 C8.86227851,8.60870532 8.64484615,8.60062863 8.4294191,8.58505559 M-2.3872679e-05,0.0375397167 L1.59944562,0.0375397167 C1.87178515,2.17428569 3.07611406,4.05393151 4.90557294,5.17751138 C4.63967905,5.83259443 4.40830504,6.50030034 4.21097347,7.17463205 C1.83831565,5.64663693 0.207525199,3.03776688 -2.3872679e-05,0.0375397167 M7.27078249,0.884432242 C6.9812069,0.660557792 6.75202918,0.36926468 6.60220424,0.0375397167 L7.90870822,0.0375397167 C7.68888859,0.314081974 7.47642175,0.596814753 7.27078249,0.884432242 M6.58487268,1.90480449 C6.17106366,2.5615319 5.79253846,3.24519775 5.45297347,3.94675809 C4.09533422,3.05832135 3.18793369,1.64504436 2.93392838,0.0375397167 L5.31112202,0.0375397167 C5.51628382,0.784996971 5.96437401,1.44404582 6.58487268,1.90480449 M7.11169496,8.39126321 C6.51769496,8.25807025 5.94561008,8.06534187 5.40116976,7.82062277 C5.65164191,6.91675809 5.96914854,6.02392027 6.35049072,5.15782745 L6.38233687,5.08470191 C6.81109019,4.12420362 7.31943501,3.19422267 7.89419363,2.31894079 C8.42049072,1.51610738 9.00842706,0.751529458 9.64496817,0.0375397167 L12.1783369,0.0375397167 C10.5834509,1.51146448 9.26104775,3.27847181 8.29797613,5.24173806 C7.80304775,6.25030962 7.40628382,7.30724465 7.11169496,8.39126321" id="Fill-1" fill="#FFFFFF" mask="url(#mask-2)"></path>
                        </g>
                        <g id="Group-6" transform="translate(3.000000, 0.000000)">
                            <mask id="mask-4" fill="white">
                                <use xlink:href="#path-3"></use>
                            </mask>
                            <g id="Clip-5"></g>
                            <path d="M9.60867805,4.46242808 C9.69287317,5.29849658 8.98419024,5.99504452 8.1335561,5.91233904 C7.5040439,5.85111301 6.99497073,5.3507089 6.93272683,4.73207192 C6.84853171,3.89595548 7.55716585,3.19940753 8.40784878,3.28211301 C9.0373122,3.34333904 9.54643415,3.84374315 9.60867805,4.46242808 M3.5733122,3.28211301 C4.42394634,3.19940753 5.13262927,3.89595548 5.04848293,4.73207192 C4.98619024,5.3507089 4.47706829,5.85111301 3.84760488,5.91233904 C2.99697073,5.99504452 2.28833659,5.29849658 2.37248293,4.46242808 C2.43472683,3.84374315 2.94384878,3.34333904 3.5733122,3.28211301 M6.02419024,6.97389384 L6.73419024,5.59609247 C6.7560439,5.55351712 6.81775122,5.49694178 6.89799512,5.60002397 L6.89170244,5.59292808 C7.25882439,6.01283219 7.8173122,6.26646233 8.43458049,6.22187329 C9.34189756,6.15633219 10.0759951,5.43207192 10.139361,4.54005137 C10.2063366,3.59768836 9.54233659,2.7952774 8.64853171,2.62507192 L8.67438537,2.62833219 C9.16619024,2.25867466 9.5398,2.23196918 9.64345854,2.27766096 C11.0681902,2.90550342 11.3743366,4.76548973 9.69853171,6.59335274 C9.68326341,6.60998973 9.68311707,6.6352089 9.69721463,6.65280479 C9.71136098,6.67030479 9.73619024,6.67553082 9.75633659,6.66517466 C12.6023366,5.20687329 11.3552634,1.91318151 11.4370195,1.37725 C11.510239,0.897510274 11.8408732,0.458188356 11.9742878,0.224407534 C11.9987756,0.181496575 11.997361,0.128804795 11.970678,0.087140411 C11.9439951,0.0454760274 11.8962878,0.0214554795 11.8462878,0.0245239726 C11.1698976,0.0663321918 8.94287317,2.24711986 6.00926341,2.28624315 C3.07570244,2.24711986 0.848629268,0.0663321918 0.172239024,0.0245239726 C0.122239024,0.0214554795 0.0745317073,0.0454760274 0.047897561,0.087140411 C0.0212146341,0.128804795 0.0198,0.181496575 0.0442878049,0.224407534 C0.177702439,0.458188356 0.508287805,0.897510274 0.581507317,1.37725 C0.663312195,1.91318151 -0.583760976,5.20687329 2.26219024,6.66517466 C2.28238537,6.67553082 2.30716585,6.67030479 2.3213122,6.65280479 C2.33540976,6.6352089 2.33526341,6.60998973 2.3200439,6.59335274 C0.644239024,4.76548973 0.950336585,2.90550342 2.37506829,2.27766096 C2.47872683,2.23196918 2.85238537,2.25867466 3.34419024,2.62833219 L3.4082878,2.6202774 C2.50326341,2.7787363 1.82575122,3.58359247 1.88911707,4.53209247 C1.94887317,5.42694178 2.68370244,6.15542123 3.5935561,6.2217774 C4.21014146,6.26675 4.76794634,6.01417466 5.13526341,5.59551712 L5.13170244,5.5997363 C5.21199512,5.49660616 5.27082439,5.55351712 5.29316585,5.59609247 L6.02419024,6.97389384" id="Fill-4" fill="#FFFFFF" mask="url(#mask-4)"></path>
                        </g>
                    </g>
                </g>
            </g>
        </g>
    </g>
</svg>