<?xml version="1.0" encoding="UTF-8"?>
<svg width="18px" height="18px" viewBox="0 0 18 18" version="1.1" xmlns="http://www.w3.org/2000/svg" xmlns:xlink="http://www.w3.org/1999/xlink">
    <!-- Generator: Sketch 64 (93537) - https://sketch.com -->
    <title>Group Copy</title>
    <desc>Created with Sketch.</desc>
    <defs>
        <path d="M6.62,10.79 C8.06,13.62 10.38,15.93 13.21,17.38 L15.41,15.18 C15.68,14.91 16.08,14.82 16.43,14.94 C17.55,15.31 18.76,15.51 20,15.51 C20.55,15.51 21,15.96 21,16.51 L21,20 C21,20.55 20.55,21 20,21 C10.61,21 3,13.39 3,4 C3,3.45 3.45,3 4,3 L7.5,3 C8.05,3 8.5,3.45 8.5,4 C8.5,5.25 8.7,6.45 9.07,7.57 C9.18,7.92 9.1,8.31 8.82,8.59 L6.62,10.79 L6.62,10.79 Z" id="path-1"></path>
        <rect id="path-3" x="0" y="0" width="50" height="50"></rect>
    </defs>
    <g id="Mobile" stroke="none" stroke-width="1" fill="none" fill-rule="evenodd">
        <g id="Mobile-Menu---State-1" transform="translate(-27.000000, -19.000000)">
            <g id="Group-Copy" transform="translate(24.000000, 16.000000)">
                <g id="phone">
                    <mask id="mask-2" fill="white">
                        <use xlink:href="#path-1"></use>
                    </mask>
                    <g id="Mask"></g>
                    <g id="Colors/White" mask="url(#mask-2)">
                        <g transform="translate(-13.000000, -13.000000)">
                            <mask id="mask-4" fill="white">
                                <use xlink:href="#path-3"></use>
                            </mask>
                            <use id="White" stroke="none" fill="#FFFFFF" fill-rule="evenodd" xlink:href="#path-3"></use>
                        </g>
                    </g>
                </g>
            </g>
        </g>
    </g>
</svg>