<svg width="65" height="64" viewBox="0 0 65 64" fill="none" xmlns="http://www.w3.org/2000/svg">
<circle cx="32.5" cy="32" r="32" fill="white" fill-opacity="0.8"/>
<g clip-path="url(#clip0_1336_14215)">
<path fill-rule="evenodd" clip-rule="evenodd" d="M38.5 46C40.6217 46 42.6566 45.1571 44.1569 43.6569C45.6571 42.1566 46.5 40.1217 46.5 38C46.5 35.8783 45.6571 33.8434 44.1569 32.3431C42.6566 30.8429 40.6217 30 38.5 30C36.3783 30 34.3434 30.8429 32.8431 32.3431C31.3429 33.8434 30.5 35.8783 30.5 38C30.5 40.1217 31.3429 42.1566 32.8431 43.6569C34.3434 45.1571 36.3783 46 38.5 46ZM48.5 38C48.5 40.6522 47.4464 43.1957 45.5711 45.0711C43.6957 46.9464 41.1522 48 38.5 48C35.8478 48 33.3043 46.9464 31.4289 45.0711C29.5536 43.1957 28.5 40.6522 28.5 38C28.5 35.3478 29.5536 32.8043 31.4289 30.9289C33.3043 29.0536 35.8478 28 38.5 28C41.1522 28 43.6957 29.0536 45.5711 30.9289C47.4464 32.8043 48.5 35.3478 48.5 38Z" fill="#66A63A"/>
<path d="M35.376 39.888C35.47 41.08 36.412 42.008 38.102 42.12V43H38.852V42.114C40.602 41.992 41.624 41.056 41.624 39.7C41.624 38.464 40.844 37.828 39.444 37.5L38.852 37.36V34.96C39.604 35.046 40.08 35.456 40.194 36.024H41.51C41.416 34.874 40.43 33.976 38.852 33.878V33H38.102V33.9C36.608 34.046 35.592 34.944 35.592 36.216C35.592 37.34 36.348 38.056 37.606 38.348L38.102 38.47V41.014C37.334 40.898 36.824 40.474 36.71 39.888H35.374H35.376ZM38.096 37.18C37.358 37.01 36.958 36.66 36.958 36.136C36.958 35.548 37.39 35.108 38.102 34.98V37.18H38.096ZM38.96 38.672C39.858 38.88 40.27 39.216 40.27 39.81C40.27 40.488 39.756 40.952 38.852 41.038V38.648L38.96 38.672Z" fill="#66A63A"/>
<path d="M18.5 16C17.9696 16 17.4609 16.2107 17.0858 16.5858C16.7107 16.9609 16.5 17.4696 16.5 18V34C16.5 34.5304 16.7107 35.0391 17.0858 35.4142C17.4609 35.7893 17.9696 36 18.5 36H26.666C26.782 35.312 26.956 34.644 27.182 34H22.5C22.5 32.9391 22.0786 31.9217 21.3284 31.1716C20.5783 30.4214 19.5609 30 18.5 30V22C19.5609 22 20.5783 21.5786 21.3284 20.8284C22.0786 20.0783 22.5 19.0609 22.5 18H42.5C42.5 19.0609 42.9214 20.0783 43.6716 20.8284C44.4217 21.5786 45.4391 22 46.5 22V29.056C47.26 29.736 47.934 30.512 48.5 31.364V18C48.5 17.4696 48.2893 16.9609 47.9142 16.5858C47.5391 16.2107 47.0304 16 46.5 16H18.5Z" fill="#66A63A"/>
<path d="M36.496 26.1661L36.5 26.0001C36.4996 25.3112 36.3213 24.6342 35.9824 24.0345C35.6435 23.4348 35.1555 22.9328 34.5657 22.5771C33.9758 22.2214 33.3041 22.024 32.6156 22.0041C31.927 21.9842 31.245 22.1425 30.6356 22.4635C30.0262 22.7846 29.51 23.2575 29.1371 23.8367C28.7641 24.4158 28.547 25.0814 28.5068 25.769C28.4666 26.4567 28.6047 27.143 28.9076 27.7617C29.2106 28.3803 29.6681 28.9102 30.236 29.3001C31.9635 27.6546 34.1435 26.5632 36.496 26.1661Z" fill="#66A63A"/>
</g>
<defs>
<clipPath id="clip0_1336_14215">
<rect width="32" height="32" fill="white" transform="translate(16.5 16)"/>
</clipPath>
</defs>
</svg>
